# xmcd
#
# Track frame offsets:
#	182
#	19677
#	37220
#	47880
#	64045
#	78477
#	94492
#	106480
#	121605
#	139280
#	156502
#	173165
#	189410
#	207080
#	220707
#
# Disc length: 3152 seconds
#
# Revision: 1
# Processed by: cddbd v1.5.2PL0 Copyright (c) Steve Scherf et al.
# Submitted via: audiograbber 1.83.01
#
DISCID=d60c4e0f
DTITLE=Pam Clarke - You Hold The Key
DYEAR=1995
DGENRE=Country
TTITLE0=I've Got Part Of You
TTITLE1=Upon Reflection
TTITLE2=My Mother
TTITLE3=You Hold The Key
TTITLE4=The Aussie Female Shearer Who Became A Queensland Cop
TTITLE5=Golden Anniversary Song
TTITLE6=You Ain't Woman Enough
TTITLE7=The Big Turn On
TTITLE8=My Name's Bob
TTITLE9=Heart Of Pure Gold
TTITLE10=When The Wagon Was New
TTITLE11=Two Miles Out Of Georgia
TTITLE12=We've Had Enough
TTITLE13=Blue Moon Of Kentucky
TTITLE14=Wildflowers
EXTD=
EXTT0=
EXTT1=
EXTT2=
EXTT3=
EXTT4=
EXTT5=
EXTT6=
EXTT7=
EXTT8=
EXTT9=
EXTT10=
EXTT11=
EXTT12=
EXTT13=
EXTT14=
PLAYORDER=
